<svg xmlns="http://www.w3.org/2000/svg" width="151" height="23" viewBox="0 0 151 23">
    <g fill="none" fill-rule="evenodd">
        <path fill="#0C77F8" d="M37.96 6c1.855 0 3.132.8 4 1.809.137.174.222.4.222.608 0 .54-.443.957-.97.957a.988.988 0 0 1-.733-.33c-.647-.748-1.583-1.2-2.52-1.2-2.23 0-3.882 1.739-3.882 4.156 0 2.4 1.652 4.157 3.882 4.157.937 0 1.873-.418 2.52-1.183.205-.209.477-.33.75-.33a.94.94 0 0 1 .936.939c0 .208-.068.434-.204.608C41.092 17.2 39.815 18 37.959 18 34.605 18 32 15.565 32 12s2.605-6 5.96-6zm14.098 7.583C52.058 16 50.457 18 47.818 18c-2.64 0-4.24-2-4.24-4.417 0-2.4 1.6-4.4 4.24-4.4 2.639 0 4.24 2 4.24 4.4zm-1.907 0c0-1.461-.835-2.748-2.333-2.748-1.516 0-2.35 1.287-2.35 2.748 0 1.478.834 2.765 2.35 2.765 1.498 0 2.333-1.287 2.333-2.765zm11.067 3.39a.922.922 0 0 1-.92.923.907.907 0 0 1-.902-.922v-4.417c0-1.287-.647-1.722-1.652-1.722-.902 0-1.685.539-2.077 1.113v5.026a.922.922 0 0 1-.92.922.907.907 0 0 1-.902-.922V10.19c0-.487.392-.904.937-.904.477 0 .885.417.885.904v.348c.545-.66 1.584-1.356 2.895-1.356 1.77 0 2.656.99 2.656 2.695v5.096zm6.436.123c0 .556-.494.904-1.652.904-1.396 0-2.128-.765-2.128-2.174v-4.8h-.681c-.426 0-.783-.365-.783-.835a.8.8 0 0 1 .783-.8h.681V7.913c0-.504.409-.922.937-.922.493 0 .885.418.885.922v1.478h1.005c.425 0 .766.366.766.835 0 .435-.34.8-.766.8h-1.005v4.33c0 .644.358.992.783.992.12 0 .273-.052.375-.052.494 0 .8.347.8.8zm8.156-.122a.918.918 0 0 1-.903.922h-.102c-.238 0-.817-.209-.817-.853v-.156C73.392 17.6 72.422 18 71.348 18c-1.344 0-2.877-.922-2.877-2.783 0-1.93 1.533-2.73 2.878-2.73 1.09 0 2.06.365 2.639 1.078v-1.287c0-.956-.783-1.548-1.907-1.548-.715 0-1.362.192-1.958.644a.688.688 0 0 1-.375.122.726.726 0 0 1-.715-.73c0-.14.051-.296.136-.4.647-.836 2.163-1.183 3.201-1.183 1.822 0 3.44.782 3.44 3.043v4.748zm-1.822-1.113v-1.252c-.409-.557-1.158-.835-1.941-.835-.97 0-1.72.556-1.72 1.478 0 .887.75 1.461 1.72 1.461.783 0 1.532-.278 1.941-.852zm10.795.626a.713.713 0 0 1-.272.574c-.596.556-1.448.939-2.64.939-2.503 0-4.256-1.86-4.256-4.417 0-2.54 1.753-4.4 4.256-4.4 1.26 0 2.316.452 2.776 1.13.085.104.119.244.119.383 0 .487-.426.8-.851.8a.839.839 0 0 1-.528-.174 2.266 2.266 0 0 0-1.43-.487c-1.482 0-2.47 1.13-2.47 2.748 0 1.617.988 2.765 2.47 2.765.544 0 1.004-.174 1.43-.505a.873.873 0 0 1 .528-.173c.442 0 .868.33.868.817zm5.942.609c0 .556-.493.904-1.651.904-1.397 0-2.129-.765-2.129-2.174v-4.8h-.68c-.426 0-.784-.365-.784-.835a.8.8 0 0 1 .783-.8h.681V7.913c0-.504.409-.922.937-.922.494 0 .885.418.885.922v1.478h1.005c.425 0 .766.366.766.835 0 .435-.34.8-.766.8h-1.005v4.33c0 .644.358.992.783.992.12 0 .273-.052.375-.052.494 0 .8.347.8.8zm9.671-2.696c0 1.948-1.328 3.6-4.392 3.6-1.669 0-3.44-.557-4.206-1.478a.91.91 0 0 1-.204-.574c0-.54.46-.991.97-.991.187 0 .392.052.545.173.783.61 1.788 1.044 2.98 1.044 1.6 0 2.247-.817 2.247-1.565 0-2.4-6.606-.905-6.606-5.183 0-1.93 1.634-3.409 4.137-3.409 1.363 0 3.065.435 3.814 1.27a.864.864 0 0 1 .205.556c0 .54-.494.957-.988.957a.922.922 0 0 1-.545-.174c-.8-.539-1.736-.783-2.656-.783-1.158 0-1.89.574-1.89 1.427 0 2.139 6.59.8 6.59 5.13zm13.707 2.574a.918.918 0 1 1-1.839 0V12.33c0-.887-.374-1.495-1.328-1.495-.8 0-1.532.574-1.89 1.095v5.044a.922.922 0 0 1-.92.922.907.907 0 0 1-.902-.922V12.33c0-.887-.391-1.495-1.345-1.495-.783 0-1.515.574-1.873 1.113v5.026a.922.922 0 0 1-.92.922.907.907 0 0 1-.902-.922V10.19c0-.487.392-.904.937-.904.477 0 .885.417.885.904v.348c.34-.522 1.43-1.356 2.673-1.356 1.226 0 1.975.626 2.248 1.547.477-.765 1.566-1.547 2.81-1.547 1.498 0 2.366.834 2.366 2.539v5.252zm9.126 0a.918.918 0 0 1-.902.922h-.102c-.239 0-.818-.209-.818-.853v-.156c-.595.713-1.566 1.113-2.639 1.113-1.345 0-2.877-.922-2.877-2.783 0-1.93 1.532-2.73 2.877-2.73 1.09 0 2.06.365 2.64 1.078v-1.287c0-.956-.784-1.548-1.907-1.548-.716 0-1.363.192-1.959.644a.688.688 0 0 1-.374.122.726.726 0 0 1-.715-.73c0-.14.05-.296.136-.4.647-.836 2.162-1.183 3.201-1.183 1.822 0 3.44.782 3.44 3.043v4.748zm-1.822-1.113v-1.252c-.408-.557-1.157-.835-1.94-.835-.971 0-1.72.556-1.72 1.478 0 .887.749 1.461 1.72 1.461.783 0 1.532-.278 1.94-.852zm8.718-5.774c0 .556-.374.904-.885.974-.732.07-1.43.382-1.873 1.026v4.887a.918.918 0 0 1-.903.922h-.034c-.493 0-.885-.418-.885-.922V10.19c0-.487.392-.904.936-.904.477 0 .886.417.886.904v.435c.443-.609 1.09-1.339 1.958-1.339.494 0 .8.348.8.8zm5.483 7.009c0 .556-.494.904-1.652.904-1.396 0-2.128-.765-2.128-2.174v-4.8h-.681c-.426 0-.783-.365-.783-.835a.8.8 0 0 1 .783-.8h.68V7.913c0-.504.41-.922.937-.922.494 0 .886.418.886.922v1.478h1.004c.426 0 .767.366.767.835 0 .435-.341.8-.767.8h-1.004v4.33c0 .644.357.992.783.992.12 0 .272-.052.375-.052.493 0 .8.347.8.8zm9.024-3.809a.9.9 0 0 1-.885.904h-5.415c.12 1.252 1.056 2.313 2.588 2.313.596 0 1.277-.191 1.84-.556a.764.764 0 0 1 .374-.105c.374 0 .766.314.766.766 0 .956-2.111 1.391-3.167 1.391-2.469 0-4.308-1.757-4.308-4.417 0-2.435 1.737-4.4 4.172-4.4 1.924 0 3.32 1.182 3.83 2.99.103.349.205.749.205 1.114zm-1.754-.383c-.034-.974-.68-2.226-2.281-2.226-1.499 0-2.197 1.218-2.282 2.226h4.563zM151 10.087c0 .556-.375.904-.885.974-.733.07-1.43.382-1.873 1.026v4.887a.918.918 0 0 1-.903.922h-.034c-.494 0-.885-.418-.885-.922V10.19c0-.487.391-.904.936-.904.477 0 .886.417.886.904v.435c.442-.609 1.09-1.339 1.958-1.339.494 0 .8.348.8.8zM.972 9.54L9.423.983a1.362 1.362 0 0 1 1.943 0l.337.34c.518.525.538 1.368.046 1.918-.331.37-.783.593-1.354.667-.99.128-3.514 2.633-7.574 7.517a1.246 1.246 0 0 1-1.85.08 1.403 1.403 0 0 1 0-1.967z"/>
        <path fill="#0C77F8" d="M19.832 9.54L11.381.983a1.362 1.362 0 0 0-1.944 0l-.336.34a1.403 1.403 0 0 0-.046 1.918c.331.37.783.593 1.354.667.99.128 3.514 2.633 7.574 7.517a1.246 1.246 0 0 0 1.85.08 1.403 1.403 0 0 0 0-1.967z"/>
        <path fill="#0046BC" d="M.972 20.51l8.451-8.555a1.362 1.362 0 0 1 1.943 0l.337.34c.518.525.538 1.369.046 1.918-.331.37-.783.593-1.354.667-.99.128-3.514 2.634-7.574 7.517a1.246 1.246 0 0 1-1.85.08 1.403 1.403 0 0 1 0-1.966z"/>
        <path fill="#0046BC" d="M19.832 20.51l-8.451-8.555a1.362 1.362 0 0 0-1.944 0l-.336.34a1.403 1.403 0 0 0-.046 1.918c.331.37.783.593 1.354.667.99.128 3.514 2.634 7.574 7.517a1.246 1.246 0 0 0 1.85.08 1.403 1.403 0 0 0 0-1.966z"/>
    </g>
</svg>
