<?xml version="1.0" encoding="UTF-8"?>
<svg width="21px" height="23px" viewBox="0 0 21 23" version="1.1" xmlns="http://www.w3.org/2000/svg" xmlns:xlink="http://www.w3.org/1999/xlink">
    <!-- Generator: Sketch 57.1 (83088) - https://sketch.com -->
    <title>logo-blue</title>
    <desc>Created with Sketch.</desc>
    <g id="Page-1" stroke="none" stroke-width="1" fill="none" fill-rule="evenodd">
        <g id="logo-blue" fill="#FFFFFF" fill-rule="nonzero">
            <path d="M0.972,9.54 L9.423,0.983 C9.67907782,0.722384441 10.0291285,0.575584596 10.3945,0.575584596 C10.7598715,0.575584596 11.1099222,0.722384441 11.366,0.983 L11.703,1.323 C12.221,1.848 12.241,2.691 11.749,3.241 C11.418,3.611 10.966,3.834 10.395,3.908 C9.405,4.036 6.881,6.541 2.821,11.425 C2.59627028,11.697325 2.26655515,11.8615201 1.91380645,11.8767741 C1.56105774,11.8920281 1.21839928,11.7569086 0.971,11.505 C0.434424285,10.9591122 0.434424285,10.0838878 0.971,9.538 L0.972,9.54 Z" id="Path"></path>
            <path d="M19.832,9.54 L11.381,0.983 C11.1248854,0.722073681 10.774619,0.575075469 10.409,0.575075469 C10.043381,0.575075469 9.69311461,0.722073681 9.437,0.983 L9.101,1.323 C8.58262901,1.85031708 8.56250408,2.68943898 9.055,3.241 C9.386,3.611 9.838,3.834 10.409,3.908 C11.399,4.036 13.923,6.541 17.983,11.425 C18.2077297,11.697325 18.5374448,11.8615201 18.8901936,11.8767741 C19.2429423,11.8920281 19.5856007,11.7569086 19.833,11.505 C20.3695757,10.9591122 20.3695757,10.0838878 19.833,9.538 L19.832,9.54 Z" id="Path"></path>
            <path d="M0.972,20.51 L9.423,11.955 C9.67907782,11.6943844 10.0291285,11.5475846 10.3945,11.5475846 C10.7598715,11.5475846 11.1099222,11.6943844 11.366,11.955 L11.703,12.295 C12.221,12.82 12.241,13.664 11.749,14.213 C11.418,14.583 10.966,14.806 10.395,14.88 C9.405,15.008 6.881,17.514 2.821,22.397 C2.59627028,22.669325 2.26655515,22.8335201 1.91380645,22.8487741 C1.56105774,22.8640281 1.21839928,22.7289086 0.971,22.477 C0.435079252,21.9312334 0.435079252,21.0567666 0.971,20.511 L0.972,20.51 Z" id="Path"></path>
            <path d="M19.832,20.51 L11.381,11.955 C11.1248854,11.6940737 10.774619,11.5470755 10.409,11.5470755 C10.043381,11.5470755 9.69311461,11.6940737 9.437,11.955 L9.101,12.295 C8.58262901,12.8223171 8.56250408,13.661439 9.055,14.213 C9.386,14.583 9.838,14.806 10.409,14.88 C11.399,15.008 13.923,17.514 17.983,22.397 C18.2077297,22.669325 18.5374448,22.8335201 18.8901936,22.8487741 C19.2429423,22.8640281 19.5856007,22.7289086 19.833,22.477 C20.3689207,21.9312334 20.3689207,21.0567666 19.833,20.511 L19.832,20.51 Z" id="Path"></path>
        </g>
    </g>
</svg>